<svg id="visual" viewBox="0 0 540 960" width="540" height="960" xmlns="http://www.w3.org/2000/svg" xmlns:xlink="http://www.w3.org/1999/xlink" version="1.1"><rect width="540" height="960" fill="#161616"></rect><g><g transform="translate(93 560)"><path d="M119.7 -88.4C147.7 -60.3 157.8 -11 148 34.4C138.1 79.8 108.3 121.3 69.4 137.4C30.6 153.5 -17.2 144.2 -55.3 122.8C-93.4 101.4 -121.7 67.8 -134 26.9C-146.2 -14 -142.3 -62.2 -117.3 -89.6C-92.3 -117 -46.1 -123.6 -0.1 -123.4C45.8 -123.3 91.7 -116.5 119.7 -88.4Z" fill="#da0011"></path></g><g transform="translate(427 907)"><path d="M69 -54.9C86.4 -33.3 95.2 -4.8 91.8 25.3C88.4 55.5 72.9 87.2 48.3 98.3C23.7 109.5 -10 100 -36.3 84C-62.6 68 -81.6 45.5 -92.1 16.3C-102.5 -12.9 -104.4 -48.8 -87.6 -70.3C-70.8 -91.7 -35.4 -98.7 -4.8 -94.9C25.9 -91.1 51.7 -76.5 69 -54.9Z" fill="#da0011"></path></g><g transform="translate(291 12)"><path d="M83.9 -72.6C102.4 -43.6 106.8 -9.1 101.2 26.1C95.5 61.2 79.8 97 50.9 114.2C22.1 131.3 -19.8 129.7 -49.9 112C-80.1 94.3 -98.4 60.5 -102.6 27.6C-106.8 -5.3 -96.8 -37.3 -77.4 -66.5C-57.9 -95.7 -28.9 -122.2 1.9 -123.7C32.7 -125.2 65.3 -101.7 83.9 -72.6Z" fill="#da0011"></path></g><g transform="translate(470 478)"><path d="M61.4 -50.1C73.5 -33.9 72.9 -8.7 67.3 15.1C61.7 39 51 61.5 31.6 74.2C12.1 86.9 -16.3 89.9 -42 80.2C-67.7 70.5 -90.8 48.2 -93.2 24.9C-95.6 1.6 -77.4 -22.8 -58.4 -40.6C-39.5 -58.5 -19.7 -69.7 2.5 -71.7C24.7 -73.7 49.4 -66.4 61.4 -50.1Z" fill="#da0011"></path></g></g></svg>