<svg id="visual" viewBox="0 0 900 600" width="900" height="600" xmlns="http://www.w3.org/2000/svg" xmlns:xlink="http://www.w3.org/1999/xlink" version="1.1"><rect width="900" height="600" fill="#161616"></rect><g><g transform="translate(32 460)"><path d="M96.7 -77.9C117.7 -50.8 121.9 -11 113.4 25.8C105 62.7 83.9 96.6 51.6 115.4C19.2 134.1 -24.4 137.7 -58.9 121.4C-93.4 105.1 -118.7 69 -126.7 30C-134.8 -9 -125.5 -50.9 -101.5 -78.6C-77.5 -106.4 -38.8 -120.1 -0.5 -119.7C37.9 -119.3 75.7 -104.9 96.7 -77.9Z" fill="#da0011"></path></g><g transform="translate(389 110)"><path d="M71.9 -54.4C89.6 -35.2 97.8 -5.5 92.7 23C87.7 51.6 69.5 79 45.6 88C21.7 97 -7.9 87.4 -33.5 73.6C-59.1 59.7 -80.7 41.5 -89 16.9C-97.3 -7.7 -92.3 -38.7 -75.3 -57.7C-58.2 -76.7 -29.1 -83.7 -1 -82.9C27.1 -82.1 54.3 -73.5 71.9 -54.4Z" fill="#da0011"></path></g><g transform="translate(659 554)"><path d="M88 -69.4C115 -36.3 138.5 0.3 134.2 35.2C129.9 70.1 97.8 103.2 62.4 114.4C27.1 125.5 -11.5 114.7 -48.4 97.9C-85.4 81.1 -120.7 58.4 -131 26.2C-141.3 -6 -126.7 -47.7 -100.7 -80.6C-74.7 -113.4 -37.3 -137.5 -3.4 -134.8C30.5 -132 61 -102.5 88 -69.4Z" fill="#da0011"></path></g><g transform="translate(794 134)"><path d="M62.4 -52.7C77.2 -31.1 83.1 -5.4 78.5 19.3C74 43.9 58.9 67.6 34.7 83.7C10.5 99.8 -22.9 108.4 -44.9 96.5C-66.8 84.7 -77.3 52.3 -84.6 19.5C-92 -13.4 -96.2 -46.7 -81.6 -68.3C-67 -89.9 -33.5 -99.6 -4.9 -95.7C23.8 -91.9 47.5 -74.4 62.4 -52.7Z" fill="#da0011"></path></g></g></svg>