<svg id="visual" viewBox="0 0 675 900" width="675" height="900" xmlns="http://www.w3.org/2000/svg" xmlns:xlink="http://www.w3.org/1999/xlink" version="1.1"><rect width="675" height="900" fill="#161616"></rect><g><g transform="translate(273 815)"><path d="M99.4 -67.9C131 -39.6 160.5 1.9 156.4 42.1C152.4 82.4 114.8 121.5 72.6 136.3C30.3 151.2 -16.8 141.8 -50.2 119.8C-83.6 97.7 -103.4 62.9 -115.5 22.7C-127.5 -17.5 -131.9 -63.1 -111.4 -88.8C-90.8 -114.6 -45.4 -120.5 -5.8 -115.9C33.9 -111.3 67.7 -96.2 99.4 -67.9Z" fill="#da0011"></path></g><g transform="translate(669 557)"><path d="M73.5 -56.8C93.4 -33.7 106.3 -3.2 101.8 25.8C97.2 54.8 75.1 82.4 48.7 91.4C22.3 100.5 -8.5 90.9 -37.8 77.3C-67.2 63.6 -95.2 45.9 -106.5 18.1C-117.8 -9.7 -112.4 -47.5 -91.9 -70.8C-71.4 -94 -35.7 -102.7 -4.4 -99.2C26.8 -95.6 53.6 -79.9 73.5 -56.8Z" fill="#da0011"></path></g><g transform="translate(446 191)"><path d="M87.2 -66.1C109.1 -42.2 120.2 -6.1 115.1 30.5C110.1 67 89.1 104.1 58.8 116.6C28.5 129.2 -11.1 117.2 -42.8 98.3C-74.4 79.4 -98.3 53.6 -108.7 21C-119.1 -11.5 -116.2 -50.9 -95.9 -74.5C-75.5 -98.1 -37.8 -105.9 -2.5 -103.9C32.7 -101.9 65.4 -90.1 87.2 -66.1Z" fill="#da0011"></path></g><g transform="translate(12 110)"><path d="M66.5 -48.7C87.5 -26.8 106.6 0.9 102.1 24.5C97.7 48 69.7 67.4 39.5 81.8C9.3 96.2 -23.1 105.7 -45.6 94.8C-68 83.9 -80.6 52.6 -84.8 22.6C-89 -7.3 -84.8 -35.8 -69.3 -56.5C-53.8 -77.2 -26.9 -90.1 -2.1 -88.5C22.8 -86.8 45.6 -70.7 66.5 -48.7Z" fill="#da0011"></path></g></g></svg>