<?xml version="1.0" encoding="UTF-8" standalone="no" ?>
<!DOCTYPE svg PUBLIC "-//W3C//DTD SVG 1.1//EN" "http://www.w3.org/Graphics/SVG/1.1/DTD/svg11.dtd">
<svg xmlns="http://www.w3.org/2000/svg" xmlns:xlink="http://www.w3.org/1999/xlink" version="1.1" width="541" height="961" viewBox="43.94999999999999 -228.6 541 961" xml:space="preserve">
<desc>Created with Fabric.js 4.6.0</desc>
<defs>
</defs>
<g transform="matrix(1 0 0 1 314.45 251.9)" id="OibRpGgiTZC9NLNznA_vW"  >
<g style="" vector-effect="non-scaling-stroke"   >
		<g transform="matrix(1 0 0 1 0 0)" id="CtMsl_r__y-3psJxRagGT"  >
<path style="stroke: none; stroke-width: 1; stroke-dasharray: none; stroke-linecap: butt; stroke-dashoffset: 0; stroke-linejoin: miter; stroke-miterlimit: 4; fill: rgb(22,22,22); fill-rule: nonzero; opacity: 1;" vector-effect="non-scaling-stroke"  transform=" translate(-270, -480)" d="M 0 960 L 0 0 L 540 0 L 540 960 z" stroke-linecap="round" />
</g>
		<g transform="matrix(1 0 0 1 -94.2 91.78)" id="cic44UgJoO7RUuAN8bPDN"  >
<path style="stroke: none; stroke-width: 1; stroke-dasharray: none; stroke-linecap: butt; stroke-dashoffset: 0; stroke-linejoin: miter; stroke-miterlimit: 4; fill: rgb(218,0,17); fill-rule: nonzero; opacity: 1;" vector-effect="non-scaling-stroke"  transform=" translate(-5.48, -11.07)" d="M 119.7 -88.4 C 147.7 -60.3 157.8 -11 148 34.4 C 138.1 79.8 108.3 121.3 69.4 137.4 C 30.6 153.5 -17.2 144.2 -55.3 122.8 C -93.4 101.4 -121.7 67.8 -134 26.9 C -146.2 -14 -142.3 -62.2 -117.3 -89.6 C -92.3 -117 -46.1 -123.6 -0.1 -123.4 C 45.8 -123.3 91.7 -116.5 119.7 -88.4 Z" stroke-linecap="round" />
</g>
		<g transform="matrix(1 0 0 1 140.16 308.07)" id="Hw8gH3c4XCNoqbUAUIdga"  >
<path style="stroke: none; stroke-width: 1; stroke-dasharray: none; stroke-linecap: butt; stroke-dashoffset: 0; stroke-linejoin: miter; stroke-miterlimit: 4; fill: rgb(218,0,17); fill-rule: nonzero; opacity: 1;" vector-effect="non-scaling-stroke"  transform=" translate(3.78, -3.65)" d="M 69 -54.9 C 86.4 -33.3 95.2 -4.8 91.8 25.3 C 88.4 55.5 72.9 87.2 48.3 98.3 C 23.7 109.5 -10 100 -36.3 84 C -62.6 68 -81.6 45.5 -92.1 16.3 C -102.5 -12.9 -104.4 -48.8 -87.6 -70.3 C -70.8 -91.7 -35.4 -98.7 -4.8 -94.9 C 25.9 -91.1 51.7 -76.5 69 -54.9 Z" stroke-linecap="round" />
</g>
		<g transform="matrix(1 0 0 1 -136.86 -336.73)" id="g6LGKzfnJPqIKOwmj3Fp2"  >
<path style="stroke: none; stroke-width: 1; stroke-dasharray: none; stroke-linecap: butt; stroke-dashoffset: 0; stroke-linejoin: miter; stroke-miterlimit: 4; fill: rgb(218,0,17); fill-rule: nonzero; opacity: 1;" vector-effect="non-scaling-stroke"  transform=" translate(0.04, -1.21)" d="M 83.9 -72.6 C 102.4 -43.6 106.8 -9.1 101.2 26.1 C 95.5 61.2 79.8 97 50.9 114.2 C 22.1 131.3 -19.8 129.7 -49.9 112 C -80.1 94.3 -98.4 60.5 -102.6 27.6 C -106.8 -5.3 -96.8 -37.3 -77.4 -66.5 C -57.9 -95.7 -28.9 -122.2 1.9 -123.7 C 32.7 -125.2 65.3 -101.7 83.9 -72.6 Z" stroke-linecap="round" />
</g>
		<g transform="matrix(1 0 0 1 171.52 -6.61)" id="n1Nk7r-vJrceIrsREbH3N"  >
<path style="stroke: none; stroke-width: 1; stroke-dasharray: none; stroke-linecap: butt; stroke-dashoffset: 0; stroke-linejoin: miter; stroke-miterlimit: 4; fill: rgb(218,0,17); fill-rule: nonzero; opacity: 1;" vector-effect="non-scaling-stroke"  transform=" translate(11.14, -6.96)" d="M 61.4 -50.1 C 73.5 -33.9 72.9 -8.7 67.3 15.1 C 61.7 39 51 61.5 31.6 74.2 C 12.1 86.9 -16.3 89.9 -42 80.2 C -67.7 70.5 -90.8 48.2 -93.2 24.9 C -95.6 1.6 -77.4 -22.8 -58.4 -40.6 C -39.5 -58.5 -19.7 -69.7 2.5 -71.7 C 24.7 -73.7 49.4 -66.4 61.4 -50.1 Z" stroke-linecap="round" />
</g>
		<g transform="matrix(0.71 0 0 0.48 171.52 -312.4)" id="n9jCD5Cc4q_7yKpRuZfFf"  >
<path style="stroke: none; stroke-width: 1; stroke-dasharray: none; stroke-linecap: butt; stroke-dashoffset: 0; stroke-linejoin: miter; stroke-miterlimit: 4; fill: rgb(218,0,17); fill-rule: nonzero; opacity: 1;" vector-effect="non-scaling-stroke"  transform=" translate(0.04, -1.21)" d="M 83.9 -72.6 C 102.4 -43.6 106.8 -9.1 101.2 26.1 C 95.5 61.2 79.8 97 50.9 114.2 C 22.1 131.3 -19.8 129.7 -49.9 112 C -80.1 94.3 -98.4 60.5 -102.6 27.6 C -106.8 -5.3 -96.8 -37.3 -77.4 -66.5 C -57.9 -95.7 -28.9 -122.2 1.9 -123.7 C 32.7 -125.2 65.3 -101.7 83.9 -72.6 Z" stroke-linecap="round" />
</g>
		<g transform="matrix(-0.77 0 0 -0.57 -102.32 350.73)" id="8pD3r102sxIi710Y-qmuZ"  >
<path style="stroke: none; stroke-width: 1; stroke-dasharray: none; stroke-linecap: butt; stroke-dashoffset: 0; stroke-linejoin: miter; stroke-miterlimit: 4; fill: rgb(218,0,17); fill-rule: nonzero; opacity: 1;" vector-effect="non-scaling-stroke"  transform=" translate(3.78, -3.65)" d="M 69 -54.9 C 86.4 -33.3 95.2 -4.8 91.8 25.3 C 88.4 55.5 72.9 87.2 48.3 98.3 C 23.7 109.5 -10 100 -36.3 84 C -62.6 68 -81.6 45.5 -92.1 16.3 C -102.5 -12.9 -104.4 -48.8 -87.6 -70.3 C -70.8 -91.7 -35.4 -98.7 -4.8 -94.9 C 25.9 -91.1 51.7 -76.5 69 -54.9 Z" stroke-linecap="round" />
</g>
		<g transform="matrix(0.58 0 0 0.54 37.74 -142.82)" id="BB2W2rkSXLQJ56b1xAxBP"  >
<path style="stroke: none; stroke-width: 1; stroke-dasharray: none; stroke-linecap: butt; stroke-dashoffset: 0; stroke-linejoin: miter; stroke-miterlimit: 4; fill: rgb(218,0,17); fill-rule: nonzero; opacity: 1;" vector-effect="non-scaling-stroke"  transform=" translate(0.04, -1.21)" d="M 83.9 -72.6 C 102.4 -43.6 106.8 -9.1 101.2 26.1 C 95.5 61.2 79.8 97 50.9 114.2 C 22.1 131.3 -19.8 129.7 -49.9 112 C -80.1 94.3 -98.4 60.5 -102.6 27.6 C -106.8 -5.3 -96.8 -37.3 -77.4 -66.5 C -57.9 -95.7 -28.9 -122.2 1.9 -123.7 C 32.7 -125.2 65.3 -101.7 83.9 -72.6 Z" stroke-linecap="round" />
</g>
		<g transform="matrix(0.36 0 0 0.36 -195.38 -127.06)" id="eHIwFkatKqqzfHpBENpw0"  >
<path style="stroke: none; stroke-width: 1; stroke-dasharray: none; stroke-linecap: butt; stroke-dashoffset: 0; stroke-linejoin: miter; stroke-miterlimit: 4; fill: rgb(218,0,17); fill-rule: nonzero; opacity: 1;" vector-effect="non-scaling-stroke"  transform=" translate(11.14, -6.96)" d="M 61.4 -50.1 C 73.5 -33.9 72.9 -8.7 67.3 15.1 C 61.7 39 51 61.5 31.6 74.2 C 12.1 86.9 -16.3 89.9 -42 80.2 C -67.7 70.5 -90.8 48.2 -93.2 24.9 C -95.6 1.6 -77.4 -22.8 -58.4 -40.6 C -39.5 -58.5 -19.7 -69.7 2.5 -71.7 C 24.7 -73.7 49.4 -66.4 61.4 -50.1 Z" stroke-linecap="round" />
</g>
</g>
</g>
</svg>